<?xml version="1.0" encoding="UTF-8"?>
<svg version="1.1" xmlns="http://www.w3.org/2000/svg"  width="24" height="24">
<path d="M0 0 C84.48 0 168.96 0 256 0 C256 84.48 256 168.96 256 256 C171.52 256 87.04 256 0 256 C0 171.52 0 87.04 0 0 Z " fill="#FBFCFA" transform="translate(0,0)"/>
<path d="M0 0 C9.68909918 9.40412568 16.24934207 21.79445955 18.0625 35.25 C18.0625 37.23 18.0625 39.21 18.0625 41.25 C30.2725 41.25 42.4825 41.25 55.0625 41.25 C55.26304405 61.31331774 55.26304405 61.31331774 55.30664062 69.91015625 C55.33645199 75.76081202 55.37159858 81.61107403 55.43969727 87.46142578 C55.49429437 92.18176189 55.52397862 96.90167535 55.53688622 101.62230301 C55.54607663 103.41714754 55.56402297 105.21197071 55.59115028 107.00663376 C55.85991839 125.53584689 55.85991839 125.53584689 50.0625 133.25 C47.67578125 135.50390625 47.67578125 135.50390625 45.375 136.8125 C44.60800781 137.26753906 43.84101563 137.72257813 43.05078125 138.19140625 C38.65915853 140.52957866 34.89710877 140.41224544 29.9855957 140.42700195 C28.57289398 140.43685875 28.57289398 140.43685875 27.13165283 140.44691467 C24.00052817 140.46669257 20.86945184 140.47832704 17.73828125 140.48828125 C16.66661398 140.49235678 15.59494671 140.4964323 14.49080467 140.50063133 C8.80661587 140.52152208 3.12245135 140.53580458 -2.56176758 140.54516602 C-8.4030735 140.55617058 -14.24399215 140.59049251 -20.08516216 140.63033772 C-24.59884794 140.65664775 -29.11244404 140.6648711 -33.62619972 140.66844749 C-35.77692052 140.67328503 -37.92763809 140.68481691 -40.07828331 140.70348549 C-52.42536206 140.80390584 -63.18202194 140.20016902 -74.9375 136.25 C-76.54015264 135.80698594 -78.14396354 135.36808546 -79.75 134.9375 C-95.84470728 129.29076405 -106.69363834 113.86519839 -114.1875 99.375 C-114.51693604 98.75165771 -114.84637207 98.12831543 -115.18579102 97.48608398 C-120.36009181 87.1044071 -121.37484496 76.62788056 -121.23046875 65.171875 C-121.22622391 63.87928772 -121.22197906 62.58670044 -121.21760559 61.25494385 C-121.20629347 57.86173242 -121.176949 54.46892236 -121.14349365 51.0758667 C-121.11249377 47.59620689 -121.09887131 44.11647864 -121.08398438 40.63671875 C-121.05366348 33.8407944 -120.99491271 27.04596404 -120.9375 20.25 C-108.3975 20.25 -95.8575 20.25 -82.9375 20.25 C-82.6075 18.6 -82.2775 16.95 -81.9375 15.25 C-75.65491873 2.56956074 -64.35112249 -7.59243485 -50.91796875 -12.19140625 C-32.63341926 -17.34858688 -14.12870937 -12.22152821 0 0 Z " fill="#FAFCFB" transform="translate(160.9375,75.75)"/>
<path d="M0 0 C1.11503906 -0.01160156 2.23007813 -0.02320313 3.37890625 -0.03515625 C10.13814246 -0.01127202 15.62504481 0.83072056 21.875 3.375 C23.16517404 3.81688231 24.45665306 4.25499253 25.75 4.6875 C44.82158243 12.11260225 58.56364456 26.93459139 67.5625 45.015625 C68.875 48.375 68.875 48.375 69.875 55.375 C83.405 55.375 96.935 55.375 110.875 55.375 C110.96569262 68.80622858 111.0389413 82.23725078 111.08224869 95.66871738 C111.10304344 101.90678428 111.13121193 108.14462918 111.17675781 114.38256836 C111.22050596 120.41264437 111.24419797 126.44250806 111.25450897 132.47273064 C111.26184862 134.76301346 111.27617987 137.05328585 111.29792023 139.34347725 C111.58637018 171.01507432 111.58637018 171.01507432 101.875 183.375 C101.23111328 184.27605469 101.23111328 184.27605469 100.57421875 185.1953125 C95.23946246 192.13800942 86.87583037 197.08341343 78.32516479 198.92381287 C73.8983509 199.50271897 69.5653336 199.5062577 65.10595703 199.48852539 C64.13947739 199.48867142 63.17299774 199.48881744 62.17723083 199.4889679 C58.9957349 199.48827351 55.81429816 199.48050333 52.6328125 199.47265625 C50.42178377 199.47079039 48.21075463 199.46936728 45.99972534 199.46836853 C40.18992973 199.46455662 34.38015924 199.45473765 28.57037354 199.44366455 C22.63806498 199.43342192 16.70575235 199.4288648 10.7734375 199.42382812 C-0.8593878 199.41311419 -12.49218787 199.39552812 -24.125 199.375 C-24.125 192.445 -24.125 185.515 -24.125 178.375 C-21.17836426 178.37612793 -18.23172852 178.37725586 -15.19580078 178.37841797 C-5.4367633 178.37778914 4.32196405 178.34425353 14.08086967 178.2947216 C19.99510041 178.2657065 25.90893591 178.24761721 31.82324219 178.25488281 C37.53587817 178.26149228 43.24773427 178.23889798 48.96020889 178.19644547 C51.13454536 178.18534318 53.3089612 178.18458796 55.48330307 178.19457626 C70.0935235 178.79965328 70.0935235 178.79965328 83.11485291 173.27282715 C91.41634005 164.32199132 90.61140668 153.97279967 90.58203125 142.4609375 C90.59516457 140.63675294 90.61047378 138.81258288 90.62785339 136.98843384 C90.66752523 132.21763356 90.67788229 127.44721526 90.68188477 122.67626953 C90.6929003 116.93573841 90.74076771 111.19540763 90.78237152 105.45503235 C90.84129593 96.76151806 90.85375731 88.06905544 90.875 79.375 C78.665 79.375 66.455 79.375 53.875 79.375 C51.895 70.465 51.895 70.465 49.875 61.375 C42.69179608 44.47334373 32.75420483 34.53596153 16.04296875 27.1015625 C4.50122605 23.233519 -10.21038509 24.42180198 -21.1875 29.5 C-33.6297683 36.28310665 -41.55884019 45.38729378 -47.125 58.375 C-66.265 58.375 -85.405 58.375 -105.125 58.375 C-105.125 50.125 -105.125 41.875 -105.125 33.375 C-100.51724609 33.44074219 -100.51724609 33.44074219 -95.81640625 33.5078125 C-92.81761812 33.51621083 -89.81933174 33.50745078 -86.82055664 33.49707031 C-84.74787128 33.49900846 -82.67512015 33.51858901 -80.6027832 33.55664062 C-68.67221943 34.15163342 -68.67221943 34.15163342 -57.82080078 30.20068359 C-55.56710767 27.69693634 -53.84666084 25.26029522 -52.125 22.375 C-46.49747966 15.75171898 -39.60590612 11.64181818 -32.125 7.375 C-31.38894531 6.94960938 -30.65289062 6.52421875 -29.89453125 6.0859375 C-20.41068623 0.96270576 -10.63083288 -0.11138242 0 0 Z " fill="#438AF9" transform="translate(125.125,37.625)"/>
<path d="M0 0 C1.48085282 -0.00435306 2.96170339 -0.00953818 4.44255066 -0.01548767 C8.44684563 -0.02882663 12.45104591 -0.02946194 16.45535874 -0.02692437 C19.80743876 -0.02585096 23.15949992 -0.03074758 26.51157588 -0.03552979 C34.42570049 -0.04660782 42.33977764 -0.04707231 50.25390625 -0.04101562 C58.39616748 -0.03497976 66.53825573 -0.0472809 74.68048745 -0.06858569 C81.69054027 -0.0862481 88.70053825 -0.09219567 95.71061248 -0.08894795 C99.88877074 -0.08714198 104.06680566 -0.08970213 108.24494362 -0.10366249 C112.17751148 -0.11631164 116.10981144 -0.11423041 120.04237556 -0.1012516 C121.47777653 -0.09890142 122.91319676 -0.10156397 124.34857559 -0.10987473 C137.40554163 -0.17996563 147.61195231 1.1052063 157.31323242 10.2746582 C166.36627082 19.23806256 170.27533337 28.78575037 170.5402832 41.54077148 C170.53997251 43.39220142 170.52903404 45.24365411 170.50854492 47.0949707 C170.50571503 48.07964325 170.50288513 49.0643158 170.49996948 50.0788269 C170.48888437 53.18590081 170.46380233 56.29267324 170.43823242 59.3996582 C170.42818751 61.52204984 170.41906433 63.64444605 170.41088867 65.7668457 C170.3906954 70.93632265 170.35152502 76.10515788 170.31323242 81.2746582 C156.78323242 81.2746582 143.25323242 81.2746582 129.31323242 81.2746582 C127.33323242 75.3346582 127.33323242 75.3346582 125.31323242 69.2746582 C119.07859591 55.39285034 107.97547867 44.41323115 95.31323242 36.2746582 C94.70092773 35.86860352 94.08862305 35.46254883 93.45776367 35.04418945 C78.59173577 25.82795838 58.44894994 24.71313462 41.60620117 28.0402832 C25.31268157 32.19337892 12.27682954 42.99676037 1.31323242 55.2746582 C0.96969727 55.98605957 0.62616211 56.69746094 0.2722168 57.43041992 C-3.07253254 60.57925298 -7.20040994 59.76130385 -11.60473633 59.6652832 C-12.57711746 59.65962341 -13.5494986 59.65396362 -14.55134583 59.64813232 C-17.65948558 59.62572749 -20.76647582 59.57552301 -23.87426758 59.5246582 C-25.98037073 59.50459854 -28.08649194 59.48634684 -30.19262695 59.4699707 C-35.35778394 59.42584913 -40.52208082 59.3567928 -45.68676758 59.2746582 C-46.66728209 24.17600983 -46.66728209 24.17600983 -36.43676758 12.7746582 C-25.42330554 1.36093924 -15.42860983 -0.03003706 0 0 Z " fill="#FAA407" transform="translate(65.686767578125,11.725341796875)"/>
<path d="M0 0 C6.6 0 13.2 0 20 0 C20.09085593 10.3020143 20.16403346 20.60375663 20.20724869 30.90608311 C20.2280039 35.69136667 20.25609713 40.47635874 20.30175781 45.26147461 C20.34565098 49.89104459 20.36922748 54.52033658 20.37950897 59.1500988 C20.38682321 60.90450343 20.40110276 62.65889518 20.42292023 64.4131794 C20.58868222 78.31152019 19.96602552 92.5886948 11 104 C10.57074219 104.60070312 10.14148438 105.20140625 9.69921875 105.8203125 C4.36446246 112.76300942 -3.99916963 117.70841343 -12.54983521 119.54881287 C-16.9766491 120.12771897 -21.3096664 120.1312577 -25.76904297 120.11352539 C-27.21876244 120.11374443 -27.21876244 120.11374443 -28.69776917 120.1139679 C-31.8792651 120.11327351 -35.06070184 120.10550333 -38.2421875 120.09765625 C-40.45321623 120.09579039 -42.66424537 120.09436728 -44.87527466 120.09336853 C-50.68507027 120.08955662 -56.49484076 120.07973765 -62.30462646 120.06866455 C-68.23693502 120.05842192 -74.16924765 120.0538648 -80.1015625 120.04882812 C-91.7343878 120.03811419 -103.36718787 120.02052812 -115 120 C-115 113.07 -115 106.14 -115 99 C-110.58004639 99.00169189 -110.58004639 99.00169189 -106.07080078 99.00341797 C-96.3117633 99.00278914 -86.55303595 98.96925353 -76.79413033 98.9197216 C-70.87989959 98.8907065 -64.96606409 98.87261721 -59.05175781 98.87988281 C-53.33912183 98.88649228 -47.62726573 98.86389798 -41.91479111 98.82144547 C-39.74045464 98.81034318 -37.5660388 98.80958796 -35.39169693 98.81957626 C-20.7814765 99.42465328 -20.7814765 99.42465328 -7.76014709 93.89782715 C0.54134005 84.94699132 -0.26359332 74.59779967 -0.29296875 63.0859375 C-0.27983543 61.26175294 -0.26452622 59.43758288 -0.24714661 57.61343384 C-0.20747477 52.84263356 -0.19711771 48.07221526 -0.19311523 43.30126953 C-0.18375004 38.4207819 -0.14631546 33.54051556 -0.11132812 28.66015625 C-0.04693357 19.10672859 -0.01614324 9.55363116 0 0 Z " fill="#03F541" transform="translate(216,117)"/>
<path d="M0 0 C5.03961797 2.88469936 9.38735735 6.34904936 13.5 10.4375 C11.10231306 11.63634347 9.83934732 11.41490479 7.1875 11.25 C3.72276598 11.21100782 2.64962743 11.34836026 -0.4375 13.1875 C-4.10072925 17.18375009 -4.90871551 19.86157027 -4.75390625 25.4140625 C-4.23672867 29.53556998 -2.16752944 32.46188006 0.125 35.8125 C3.24855718 37.9496707 5.51786798 38.06473163 9.25 37.88671875 C13.03497952 37.13103708 14.94710567 35.23352713 17.5 32.4375 C19.36923203 29.28761127 19.36923203 29.28761127 20.5 26.4375 C24.06679538 30.00429538 23.69112069 33.67680302 23.75 38.5 C23.72947131 50.75269276 19.6779979 62.23101616 11.1875 71.3125 C2.81738663 79.01743879 -6.82640094 82.0374567 -18.08984375 81.8046875 C-28.61795534 80.6710764 -35.90868329 75.45286662 -42.5 67.4375 C-50.97592307 56.85346273 -52.82115016 43.55463374 -51.5 30.4375 C-48.92671217 18.79987807 -41.70883617 8.42738353 -31.94921875 1.671875 C-21.82717257 -4.19041968 -10.65319105 -4.99032055 0 0 Z " fill="#05BBF8" transform="translate(140.5,84.5625)"/>
<path d="M0 0 C6.6 0 13.2 0 20 0 C20.0093457 1.70873291 20.01869141 3.41746582 20.02832031 5.17797852 C20.0641448 10.88576866 20.11812636 16.59324004 20.18390274 22.30075169 C20.22306079 25.75414726 20.25540124 29.20729994 20.27099609 32.66088867 C20.40117276 59.47098645 23.4432552 79.58758072 42 100 C42.87785156 100.99966797 42.87785156 100.99966797 43.7734375 102.01953125 C53.85815269 112.88545677 66.98454653 115.88545478 81 119 C81 126.26 81 133.52 81 141 C59.86544845 141 42.4607328 132.11513466 27.46484375 117.53515625 C11.66645238 100.90655575 -0.16121833 78.83576309 -0.11352539 55.51391602 C-0.11344986 54.27315811 -0.11337433 53.03240021 -0.11329651 51.75404358 C-0.10819154 50.42066405 -0.10297557 49.08728494 -0.09765625 47.75390625 C-0.09578847 46.37385611 -0.09436627 44.99380531 -0.09336853 43.61375427 C-0.08957168 40.00198498 -0.07976594 36.39025665 -0.06866455 32.77850342 C-0.05838918 29.08476312 -0.05385785 25.39101613 -0.04882812 21.69726562 C-0.03814082 14.46482302 -0.02056733 7.23242249 0 0 Z " fill="#FBA509" transform="translate(20,96)"/>
<path d="M0 0 C1.2684375 -0.00773437 1.2684375 -0.00773437 2.5625 -0.015625 C5.24187646 0.27635833 6.78569383 0.71334787 9 2.25 C10.125 4.2734375 10.125 4.2734375 11 6.625 C12.20504069 9.62803792 12.8602448 11.11800898 15.25 13.375 C17 15.25 17 15.25 17.5625 18.5 C16.7431207 23.96252864 14.57127129 27.92019327 10.4609375 31.64453125 C5.68251853 34.84901601 0.58927882 35.13689383 -5 34.25 C-9.74577463 32.14076683 -12.24249308 29.32213436 -14.296875 24.65625 C-15.93915207 19.0360129 -16.40840257 13.13041042 -13.7890625 7.7734375 C-9.98140436 2.45817868 -6.68021075 -0.04073299 0 0 Z " fill="#1A054B" transform="translate(126,106.75)"/>
<path d="M0 0 C2.9375 1.875 2.9375 1.875 5 5 C6.02264164 10.07163742 5.80712041 13.73887436 3 18.125 C-0.29826486 20.18641554 -2.22771762 20.80833743 -6.0625 20.546875 C-9.78819693 19.495267 -11.12606223 17.22083055 -13 14 C-13.55724601 10.0296222 -13.38142821 7.81734617 -11.6875 4.1875 C-8.28429891 -0.22405697 -5.34891668 -0.64555891 0 0 Z " fill="#22084A" transform="translate(206,36)"/>
</svg>
